<svg width="88" height="65" viewBox="0 0 88 65" fill="none" xmlns="http://www.w3.org/2000/svg">
<g id="Logo">
<path id="Subtract" fill-rule="evenodd" clip-rule="evenodd" d="M17.2653 64.6667C13.7811 64.6373 10.5001 63.8519 7.42224 62.3106C4.34473 60.7393 1.87065 58.5032 0 55.6023L3.89215 51.0697C5.64211 53.608 7.66362 55.5419 9.95667 56.8715C12.2497 58.201 14.7841 58.8658 17.5599 58.8658C18.4236 58.8658 19.2398 58.8094 20.0084 58.6966L17.2653 64.6667ZM29.3269 38.4155V6.46853H6.15503V0.666748H35.9345V24.0345L29.3269 38.4155Z" fill="#F33838"/>
<path id="A" d="M23.4629 64.1237L52.4277 0.666748H59.0353L88.0002 64.1237H80.94L54.3286 4.56482H57.044L30.4326 64.1237H23.4629ZM34.8678 47.1716L36.8591 41.7325H73.6988L75.6901 47.1716H34.8678Z" fill="white"/>
</g>
</svg>
